<svg width="103" height="23" viewBox="0 0 103 23" fill="none" xmlns="http://www.w3.org/2000/svg">
<path d="M5.5 21.4073H1C0.447715 21.4073 0 20.9596 0 20.4073V1.90727C0 1.35499 0.447715 0.907272 1 0.907272H15.5C16.0523 0.907272 16.5 1.35499 16.5 1.90727V3.90727C16.5 4.45956 16.0523 4.90727 15.5 4.90727H7C6.44772 4.90727 6 5.35499 6 5.90727V8.40727C6 8.95956 6.44772 9.40727 7 9.40727H14C14.5523 9.40727 15 9.85499 15 10.4073V12.4073C15 12.9596 14.5523 13.4073 14 13.4073H7.5C6.94772 13.4073 6.5 13.855 6.5 14.4073V20.4073C6.5 20.9596 6.05228 21.4073 5.5 21.4073Z" fill="#089EFC"/>
<path d="M30.3659 0.0996965C30.5061 0.0982996 30.6292 0.138781 30.7353 0.220977C30.8413 0.303286 30.9009 0.408245 30.9123 0.535614L31.2595 2.6313C31.3214 3.00507 31.5909 3.30748 31.9456 3.44039C32.018 3.46751 32.0895 3.49525 32.1599 3.52361C32.509 3.66416 32.9097 3.62975 33.2103 3.40322L34.8401 2.17479C34.9295 2.08557 35.0498 2.04087 35.2001 2.03932C35.3304 2.038 35.4563 2.08528 35.5776 2.182C36.8832 3.3371 37.72 4.16374 38.0861 4.66074C38.1569 4.73853 38.1925 4.84665 38.1938 4.98388C38.1949 5.10146 38.1561 5.21437 38.0771 5.32297C37.9288 5.53063 37.6761 5.85987 37.3195 6.31015C37.16 6.5115 37.0184 6.69258 36.8946 6.85335C36.6601 7.15791 36.6389 7.56905 36.8007 7.91774C36.8462 8.01593 36.8895 8.11374 36.9304 8.21116C37.078 8.56234 37.3882 8.82674 37.7655 8.87932L39.9071 9.17775C40.0374 9.19611 40.1432 9.25622 40.2244 9.35816C40.3057 9.46042 40.3467 9.576 40.348 9.70361L40.381 12.972C40.3822 13.0898 40.3434 13.2033 40.2643 13.3121C40.1851 13.4208 40.0856 13.4856 39.9654 13.5065L37.7777 13.853C37.4137 13.9107 37.1147 14.1654 36.9767 14.5072C36.9467 14.5815 36.9165 14.6538 36.8862 14.724C36.7334 15.0778 36.757 15.4911 36.9947 15.7944C37.321 16.2105 37.737 16.7153 38.243 17.3082C38.3444 17.4249 38.3957 17.5474 38.3971 17.6749C38.3983 17.8024 38.3549 17.916 38.2657 18.0151C37.9986 18.381 37.5067 18.9166 36.7916 19.6208C36.0767 20.3248 35.6088 20.6777 35.3881 20.68C35.268 20.6811 35.1373 20.6388 34.9962 20.5521L33.4083 19.3611C33.0997 19.1297 32.6875 19.1011 32.3338 19.2551C32.2719 19.2821 32.2097 19.3083 32.1472 19.3338C31.7827 19.4825 31.5128 19.8078 31.466 20.1987C31.3471 21.1901 31.236 21.8904 31.1318 22.2992C31.0643 22.5745 30.8847 22.7137 30.594 22.7167L27.2543 22.7504C27.114 22.7518 26.9901 22.7114 26.8839 22.6291C26.7778 22.5467 26.7192 22.441 26.7079 22.3135L26.3599 20.2185C26.2979 19.8449 26.0285 19.5427 25.6739 19.4097C25.6024 19.3829 25.5318 19.3554 25.4622 19.3274C25.1121 19.1864 24.7101 19.2215 24.4094 19.4496L22.7937 20.6752C22.6944 20.7643 22.5693 20.8093 22.4191 20.8108C22.2787 20.8121 22.1529 20.7593 22.0415 20.6525C20.7665 19.5462 19.9307 18.7301 19.5342 18.204C19.463 18.1066 19.4266 17.9938 19.4254 17.8662C19.4242 17.7487 19.4632 17.6357 19.5421 17.5271C19.6904 17.3195 19.9432 16.9902 20.2997 16.5399C20.4563 16.3423 20.5956 16.1642 20.7178 16.0056C20.9558 15.6966 20.9731 15.2787 20.8089 14.9249C20.7659 14.8322 20.7252 14.7397 20.687 14.6473C20.5371 14.2853 20.2206 14.0086 19.8322 13.9565L17.7131 13.6723C17.5825 13.654 17.4761 13.5932 17.3948 13.491C17.3137 13.3888 17.2725 13.274 17.2712 13.1465L17.2382 9.87811C17.237 9.76042 17.2759 9.64674 17.3549 9.53804C17.4341 9.42927 17.529 9.36452 17.6391 9.34376L19.8125 9.00055C20.1922 8.9406 20.4983 8.66589 20.6429 8.30974C20.6699 8.24324 20.6981 8.17673 20.7274 8.1102C20.8836 7.75648 20.8623 7.34233 20.6246 7.03742C20.2781 6.59309 19.8618 6.08933 19.3761 5.52624C19.2749 5.4097 19.2235 5.29279 19.2222 5.17524C19.2212 5.07708 19.2655 4.96353 19.3545 4.83502C19.6117 4.47904 20.0999 3.94623 20.8199 3.23715C21.5398 2.52818 22.0103 2.17258 22.2311 2.17013C22.3614 2.16882 22.4928 2.21584 22.6241 2.31266L24.2117 3.49285C24.52 3.72207 24.9305 3.74966 25.2827 3.59614C25.3455 3.56876 25.4086 3.54214 25.472 3.51628C25.8365 3.36756 26.1064 3.04234 26.1533 2.65147C26.2724 1.66001 26.3842 0.959697 26.4884 0.550937C26.5559 0.275517 26.7354 0.136315 27.0262 0.133382L30.3659 0.0996965ZM28.7415 6.07634C25.5326 6.10871 22.9554 8.52858 22.9852 11.4814C23.0151 14.434 25.6405 16.8015 28.8493 16.7692C32.058 16.7367 34.6353 14.3167 34.6057 11.3641C34.5759 8.41146 31.9503 6.04412 28.7415 6.07634Z" fill="#089EFC"/>
<path d="M56.3125 0.494186C56.4022 0.494186 56.4937 0.506438 56.5797 0.531949C62.5969 2.31642 62.6093 11.1498 57.7304 13.7017C57.1289 14.0163 56.8188 14.7799 57.1809 15.354L60.292 20.2869C60.712 20.9528 60.2335 21.8204 59.4462 21.8204H55.9978C55.6568 21.8204 55.3394 21.6467 55.1556 21.3595L51.1948 15.1728C51.011 14.8857 50.6936 14.712 50.3526 14.712H49.4174C48.8651 14.712 48.4174 15.1597 48.4174 15.712V20.8204C48.4174 21.3726 47.9697 21.8204 47.4174 21.8204H43.8373C43.285 21.8204 42.8373 21.3726 42.8373 20.8204V1.49419C42.8373 0.941902 43.285 0.494186 43.8373 0.494186H56.3125ZM48.2611 9.48637C48.2611 10.0387 48.7088 10.4864 49.2611 10.4864H53.5128C53.6165 10.4864 53.7223 10.4703 53.8199 10.4352C57.2863 9.19002 56.2168 4.79262 53.7445 4.33116C53.6949 4.32189 53.644 4.31841 53.5935 4.31841H49.2611C48.7088 4.31841 48.2611 4.76612 48.2611 5.31841V9.48637Z" fill="#089EFC"/>
<path d="M82.663 3.56899L81.6477 5.07187C81.3774 5.47205 80.8617 5.61853 80.4079 5.45319C75.7202 3.74498 68.7516 4.13304 68.2626 11.3721C68.2626 16.7053 71.9994 18.8117 77.2525 18.1297C77.7326 18.0674 78.0806 17.649 78.0806 17.1648V13.902C78.0806 13.3497 77.6329 12.902 77.0806 12.902H74.9467C74.3944 12.902 73.9467 12.4542 73.9467 11.902V10.3324C73.9467 9.78008 74.3944 9.33236 74.9467 9.33236H82.2479C82.8002 9.33236 83.2479 9.78008 83.2479 10.3324V19.7464C83.2479 20.1423 83.0159 20.5022 82.65 20.6533C78.4144 22.4024 72.5259 23.5259 67.2291 20.0411C61.0283 15.9616 62.0749 6.65924 67.2291 2.70312C71.6426 -0.684446 76.7635 -0.919307 82.3443 2.17539C82.8424 2.45158 82.9818 3.09706 82.663 3.56899Z" fill="#089EFC"/>
<path d="M102.778 3.90727C102.778 4.45956 102.33 4.90727 101.778 4.90727H93.2776C92.7253 4.90727 92.2776 5.35499 92.2776 5.90727V8.40727C92.2776 8.95956 92.7253 9.40727 93.2776 9.40727H100.278C100.83 9.40727 101.278 9.85499 101.278 10.4073V12.4073C101.278 12.9596 100.83 13.4073 100.278 13.4073H93.7776C93.2253 13.4073 92.7776 13.855 92.7776 14.4073V16.5879C92.7776 17.1402 93.2253 17.5879 93.7776 17.5879H101.778C102.33 17.5879 102.778 18.0357 102.778 18.5879V20.4073C102.778 20.9596 102.33 21.4073 101.778 21.4073H87.2776C86.7253 21.4073 86.2776 20.9596 86.2776 20.4073V1.90727C86.2776 1.35499 86.7253 0.907272 87.2776 0.907272H101.778C102.33 0.907272 102.778 1.35499 102.778 1.90727V3.90727Z" fill="#089EFC"/>
</svg>
