<svg width="24" height="23" viewBox="0 0 24 23" fill="none" xmlns="http://www.w3.org/2000/svg">
<path d="M15.4232 11.2865C15.4127 10.2459 15.0276 9.36134 14.2679 8.6327C13.5082 7.90406 12.5968 7.54511 11.5336 7.55583C10.4704 7.56655 9.56636 7.94382 8.82152 8.68764C8.07668 9.43145 7.70951 10.3236 7.72001 11.3642C7.7305 12.4047 8.1156 13.2893 8.87529 14.0179C9.63498 14.7465 10.5464 15.1055 11.6096 15.0948C12.6728 15.0841 13.5768 14.7068 14.3217 13.963C15.0665 13.2192 15.4337 12.327 15.4232 11.2865ZM23.1102 9.60379L23.1432 12.8726C23.1444 12.9904 23.1054 13.1037 23.0262 13.2125C22.9471 13.3213 22.8474 13.3861 22.7273 13.407L19.948 13.8473C19.7628 14.3793 19.5717 14.8279 19.3748 15.1932C19.7308 15.6804 20.2742 16.3524 21.0051 17.2089C21.1066 17.3257 21.158 17.4479 21.1593 17.5755C21.1606 17.7031 21.1166 17.8165 21.0273 17.9155C20.7602 18.2815 20.269 18.8166 19.5539 19.5208C18.8387 20.2251 18.3708 20.5783 18.1501 20.5805C18.0298 20.5817 17.8989 20.5389 17.7576 20.4519L15.6653 18.8826C15.2263 19.1129 14.7718 19.304 14.3019 19.456C14.1548 20.7926 14.0186 21.707 13.8932 22.1991C13.8257 22.4747 13.6466 22.6139 13.3557 22.6169L10.0156 22.6506C9.87521 22.652 9.75192 22.6115 9.64576 22.5291C9.53961 22.4468 9.48087 22.3418 9.46955 22.2143L9.02096 19.5092C8.52789 19.3571 8.0747 19.1801 7.66138 18.9781L5.55589 20.575C5.45647 20.6644 5.33154 20.7098 5.18109 20.7113C5.04067 20.7127 4.91474 20.66 4.80332 20.5532C3.52823 19.4468 2.69242 18.6306 2.2959 18.1045C2.22469 18.007 2.18845 17.8945 2.18716 17.7669C2.18598 17.6491 2.22496 17.5358 2.30411 17.427C2.45248 17.2193 2.70496 16.8904 3.06154 16.4401C3.41813 15.9898 3.68545 15.641 3.86352 15.3938C3.58775 14.9057 3.37723 14.4219 3.23196 13.9423L0.474659 13.5725C0.344068 13.5542 0.238132 13.4939 0.156851 13.3916C0.0755693 13.2894 0.0342851 13.1744 0.032998 13.0468L2.70911e-05 9.77798C-0.00116105 9.66018 0.0378211 9.54689 0.116974 9.4381C0.196126 9.32932 0.29077 9.26455 0.400904 9.2438L3.19517 8.80329C3.33104 8.35032 3.52207 7.8968 3.76828 7.44272C3.36142 6.88723 2.81798 6.21532 2.13793 5.42697C2.03644 5.31019 1.9851 5.1929 1.98391 5.0751C1.98292 4.97694 2.02692 4.86359 2.11591 4.73507C2.37313 4.37905 2.86179 3.84644 3.5819 3.13724C4.30201 2.42804 4.7724 2.07232 4.99307 2.07009C5.12346 2.06878 5.25435 2.11655 5.38573 2.21339L7.47787 3.76798C7.91692 3.53775 8.37142 3.34663 8.84135 3.19463C8.98837 1.85799 9.1246 0.943606 9.25004 0.451474C9.31748 0.175909 9.49664 0.0366587 9.78751 0.0337248L13.1276 3.56044e-05C13.268 -0.00138076 13.3913 0.0390994 13.4974 0.121476C13.6036 0.203853 13.6623 0.308797 13.6737 0.436308L14.1223 3.14137C14.6153 3.29347 15.0685 3.47052 15.4818 3.67252L17.6024 2.07545C17.6917 1.98619 17.8117 1.9408 17.9621 1.93928C18.0925 1.93797 18.2184 1.98579 18.3397 2.08273C19.6454 3.23783 20.4813 4.06387 20.8475 4.56086C20.9185 4.63868 20.9547 4.74631 20.956 4.88374C20.9572 5.00154 20.9183 5.11483 20.8391 5.22362C20.6907 5.43128 20.4382 5.76025 20.0817 6.21054C19.7251 6.66082 19.4578 7.00958 19.2797 7.25681C19.5454 7.745 19.7559 8.22392 19.9111 8.69359L22.6686 9.07811C22.7991 9.09642 22.9051 9.15671 22.9864 9.25897C23.0676 9.36124 23.1089 9.47617 23.1102 9.60379Z" fill="#089EFC"/>
</svg>
