<svg width="879" height="1397" viewBox="0 0 879 1397" fill="none" xmlns="http://www.w3.org/2000/svg">
<path d="M856.668 3.49414L878.896 6.98828C870.499 60.3968 852.79 102.611 827.138 135.399C801.451 168.231 768.726 190.425 732.155 205.166C660.1 234.21 571.473 234.836 487.689 231.572C401.593 228.219 321.204 220.904 257.282 230.323C225.83 234.958 200.781 243.405 182.285 256.786C164.396 269.728 151.233 288.277 144.867 316.389L144.525 316.311L66.6162 575.357L65.3154 574.966C36.8699 666.001 38.7191 722.575 68.2451 764.176C84.6705 787.318 111.151 808.117 151.263 827.602C190.772 846.794 242.208 864.092 307.516 881.156C359.343 891.858 437.003 929.371 497.525 979.626C529.188 1005.92 557.59 1036.85 575.117 1070.88C592.834 1105.28 599.847 1143.85 586.34 1183.13L585.979 1184.16C570.509 1227.69 531.42 1246.94 489.81 1256.97C448.272 1266.98 396.079 1269.63 346.968 1274.36C244.192 1284.27 149.991 1303.6 108.781 1396.1L88.2275 1386.94L67.6758 1377.79C120.527 1259.16 241.931 1239.28 342.651 1229.57C395.288 1224.5 441.817 1222.25 479.266 1213.22C516.314 1204.29 536.19 1190.59 543.785 1168.5C552.349 1143.59 548.713 1117.89 535.111 1091.48C521.319 1064.7 497.732 1038.29 468.777 1014.25C412.859 967.816 342.243 934.513 299.321 925.416L299.295 925.519C298.649 925.351 298.005 925.18 297.361 925.013C296.185 924.779 295.031 924.562 293.899 924.367L293.941 924.119C228.401 906.909 174.459 888.899 131.6 868.079C87.5615 846.687 53.8853 821.693 31.5479 790.222C-14.0562 725.968 -6.43588 643.926 30.2959 537.448L30.957 537.676L104.49 293.181L104.52 293.189C114.296 261.63 131.928 237.676 155.909 220.327C182.535 201.065 215.519 190.991 250.722 185.804C320.111 175.579 407.527 183.415 489.44 186.605C573.667 189.886 653.257 188.45 715.332 163.429C745.826 151.137 771.647 133.297 791.696 107.67C811.78 81.9988 827.001 47.3269 834.441 0L856.668 3.49414Z" fill="#C4F14E"/>
</svg>
